<svg xmlns="http://www.w3.org/2000/svg" height="48" viewBox="0 -960 960 960" width="48"><path d="M357.662-381Q335-381 318.5-397.838t-16.5-39.5Q302-460 318.838-476.5t39.5-16.5Q381-493 397.5-476.162t16.5 39.5Q414-414 397.162-397.5t-39.5 16.5Zm245 0Q580-381 563.5-397.838t-16.5-39.5Q547-460 563.838-476.5t39.5-16.5Q626-493 643-476.162t17 39.5Q660-414 642.662-397.5t-40 16.5ZM480.656-150q137.719 0 234.032-95.946Q811-341.893 811-478.953q0-25.598-4-49.897T797-573q-20 6-42.062 7.5-22.061 1.5-46.973 1.5-96.08 0-179.554-38.5Q444.936-641 384.618-714q-32.34 78.316-93.421 137.002Q230.116-518.313 151-485.632v6.934q0 136.629 96.341 232.664Q343.682-150 480.656-150Zm.206 91q-85.664 0-163.336-33.23-77.673-33.231-135.132-90.055-57.459-56.824-90.427-134.509Q59-394.479 59-480.06q0-85.58 33.178-163.109 33.178-77.529 90.34-134.66 57.162-57.131 135.038-90.651Q395.431-902 481.228-902t163.003 33.731q77.206 33.73 134.467 90.34 57.262 56.609 90.282 134.395Q902-565.749 902-480.054q0 85.694-33.134 163.335-33.135 77.642-90.222 134.856-57.087 57.214-134.784 90.039Q566.164-59 480.862-59ZM386-806q88 104 162.5 142.5T714-625q24 0 39.075-.8 15.075-.8 31.925-6.2-44-83-122.603-135Q583.793-819 480-819q-28.15 0-53.075 4.5Q402-810 386-806ZM148-553q50-19 113-84.5T350-796q-89 41-134.5 103T148-553Zm238-253Zm-36 10Z"/></svg>