<?xml version="1.0" encoding="UTF-8"?>
<svg width="24px" height="12px" viewBox="0 0 24 12" version="1.1" xmlns="http://www.w3.org/2000/svg" xmlns:xlink="http://www.w3.org/1999/xlink">
    <title>lv0</title>
    <g id="页面-1" stroke="none" stroke-width="1" fill="none" fill-rule="evenodd">
        <g id="lv0" transform="translate(0.000000, 0.000000)" fill="#C0C0C0">
            <path d="M23.11429,0 L15.38119,0 C14.95629,0 14.70139,0.33784 14.70139,0.67569 L14.70139,1.18245 L0.67983,1.18245 C0.25494,1.18245 0,1.52029 0,1.85729 L0,10.89544 C0,11.31774 0.33992,11.57024 0.67983,11.57024 L23.02939,11.57024 C23.45419,11.57024 23.70999,11.23324 23.70999,10.89544 L23.70999,0.67569 C23.72279,0.25 23.45419,0 23.11429,0 Z M22.34999,9.54364 C22.34999,9.96594 22.01089,10.21934 21.67009,10.21934 L16.82629,10.21934 C16.40139,10.21934 16.14649,9.88064 16.14649,9.54364 L16.14649,2.1111 C16.14649,1.6888 16.48729,1.43457 16.82629,1.43457 L21.67009,1.43457 C22.09499,1.43457 22.34999,1.77326 22.34999,2.1111 L22.34999,9.54364 Z M13.59739,7.76941 C13.68239,7.6858 13.85229,7.51688 13.85229,7.34711 L13.85229,3.20939 C13.85229,2.95601 13.59739,2.70178 13.34249,2.70178 L12.66349,2.70178 C12.40769,2.70178 12.15279,2.95601 12.15279,3.20939 L12.15279,7.01011 L10.70809,8.4451 L9.26349,7.01011 L9.26349,3.12408 C9.26349,2.87155 9.00849,2.61816 8.75359,2.61816 L8.07375,2.61816 C7.81882,2.61816 7.56388,2.87155 7.56388,3.12408 L7.56388,7.26349 C7.55878,7.43748 7.56388,7.67988 7.64886,7.76941 L10.02829,10.13434 C10.19819,10.30324 10.62309,10.30324 10.62309,10.30324 C10.62309,10.30324 11.04799,10.30324 11.21799,10.13434 L13.59739,7.76941 Z M6.54357,9.79734 C6.54357,10.05074 6.28863,10.30324 6.0337,10.30324 L1.9547,10.30324 C1.69976,10.30324 1.44483,10.05074 1.44483,9.79734 L1.44483,3.12408 C1.44483,2.87155 1.69976,2.61816 1.9547,2.61816 L2.63453,2.61816 C2.88947,2.61816 3.14441,2.87155 3.14441,3.12408 L3.14441,8.61402 L6.0337,8.61402 C6.28863,8.61402 6.54357,8.86744 6.54357,9.12164 L6.54357,9.79734 Z M18.27079,3.04102 L20.22529,3.04102 C20.48019,3.04102 20.73599,3.2944 20.73599,3.54694 L20.73599,8.10865 C20.73599,8.36203 20.48019,8.61457 20.22529,8.61457 L18.27079,8.61457 C18.01579,8.61457 17.76169,8.36203 17.76169,8.10865 L17.76169,3.54694 C17.76169,3.2944 18.01579,3.04102 18.27079,3.04102 Z" id="形状"></path>
        </g>
    </g>
</svg>