<?xml version="1.0" encoding="UTF-8"?>
<svg width="24px" height="12px" viewBox="0 0 24 12" version="1.1" xmlns="http://www.w3.org/2000/svg" xmlns:xlink="http://www.w3.org/1999/xlink">
    <title>lv1</title>
    <g id="页面-1" stroke="none" stroke-width="1" fill="none" fill-rule="evenodd">
        <g id="lv1">
            <rect id="矩形" fill="#FFFFFF" fill-rule="nonzero" x="0.69971" y="1.32422" width="22" height="9.67113"></rect>
            <path d="M23.03051,0 C23.36841,0 23.70791,0.3378 23.62321,0.6756 L23.62321,10.8946 C23.62321,11.2324 23.36841,11.5702 22.94501,11.5702 L0.67652,11.5702 C0.33869,11.5702 0,11.3169 0,10.8946 L0,1.858 C0,1.5202 0.25317,1.1824 0.67652,1.1824 L14.64721,1.1824 L14.64721,0.6756 C14.64721,0.3378 14.90131,0 15.32461,0 L23.03051,0 Z M19.30401,1.6055 L17.61061,1.6055 C17.35741,1.6055 17.10341,1.8588 17.10341,2.1122 L17.10341,2.7878 C17.10341,3.0412 17.35741,3.2946 17.61061,3.2946 L18.11951,3.2946 L18.11951,8.6152 L17.44131,8.6152 C17.18721,8.6152 16.93411,8.8677 16.93411,9.1219 L16.93411,9.7975 C16.93411,10.0509 17.18721,10.3043 17.44131,10.3043 L20.49601,10.3043 C20.75001,10.3043 21.01941,10.0509 21.01941,9.7975 L21.01941,9.1248 C21.01941,8.8715 20.75001,8.6123 20.49601,8.6123 L19.81291,8.6123 L19.81291,2.1122 C19.81291,1.8588 19.55801,1.6055 19.30401,1.6055 Z M8.72071,2.6182 L8.04416,2.6182 C7.79015,2.6182 7.53614,2.8715 7.53614,3.1249 L7.53639,7.34191 C7.53787,7.50928 7.54824,7.7243 7.62081,7.7699 L9.99071,10.1338 C10.16091,10.3035 10.58431,10.3035 10.58431,10.3035 L10.59901,10.3033 C10.67521,10.3014 11.02641,10.2846 11.17701,10.1338 L13.54781,7.7699 C13.56661,7.7509 13.58981,7.7311 13.61441,7.71 C13.69921,7.6375 13.80091,7.5505 13.80091,7.4329 L13.80091,3.2093 C13.80091,2.956 13.54781,2.7026 13.29381,2.7026 L12.61641,2.7026 C12.36151,2.7026 12.10751,2.956 12.10751,3.2093 L12.10751,7.0098 L10.66901,8.4447 L9.22961,7.0098 L9.22961,3.1249 C9.22961,2.8715 8.97551,2.6182 8.72071,2.6182 Z M2.62485,2.6182 L1.94664,2.6182 C1.69347,2.6182 1.43946,2.8715 1.43946,3.1249 L1.43946,9.7968 C1.43946,10.0501 1.69347,10.3035 1.94664,10.3035 L6.01169,10.3035 C6.26486,10.3035 6.51972,10.0501 6.51972,9.7968 L6.51972,9.1212 C6.51972,8.8669 6.26571,8.6144 6.01169,8.6144 L3.13288,8.6144 L3.13288,3.1249 C3.13288,2.8715 2.87886,2.6182 2.62485,2.6182 Z" id="形状" fill="#C0C0C0"></path>
        </g>
    </g>
</svg>