<?xml version="1.0" encoding="UTF-8"?>
<svg width="24px" height="12px" viewBox="0 0 24 12" version="1.1" xmlns="http://www.w3.org/2000/svg" xmlns:xlink="http://www.w3.org/1999/xlink">
    <title>lv2</title>
    <g id="页面-1" stroke="none" stroke-width="1" fill="none" fill-rule="evenodd">
        <g id="lv2" transform="translate(0.000000, 0.000000)">
            <rect id="矩形" fill="#FFFFFF" fill-rule="nonzero" x="0.69971" y="1.34814" width="22" height="9.67113"></rect>
            <path d="M23.02991,0 C23.36861,0 23.70731,0.3378 23.62341,0.6757 L23.62341,10.8954 C23.62341,11.2333 23.36861,11.5702 22.94521,11.5702 L0.67735,11.5702 C0.33868,11.5702 0,11.3177 0,10.8954 L0,1.8573 C0,1.5203 0.25401,1.1824 0.67735,1.1824 L14.64771,1.1824 L14.64771,0.6757 C14.64771,0.3378 14.90171,0 15.32501,0 L23.02991,0 Z M8.72151,2.6182 L8.04415,2.6182 C7.79014,2.6182 7.53614,2.8715 7.53614,3.1241 L7.53614,7.2635 C7.53614,7.4546 7.53614,7.7159 7.6208,7.7694 L9.99151,10.1343 C10.16091,10.3032 10.58421,10.3032 10.58421,10.3032 C10.58421,10.3032 11.00751,10.3032 11.17691,10.1343 L13.71691,7.7694 C13.80161,7.6858 13.80161,7.5169 13.80161,7.3471 L13.80161,3.2094 C13.80161,2.956 13.54761,2.7018 13.29361,2.7018 L12.61711,2.7018 C12.36221,2.7018 12.10821,2.956 12.10821,3.2094 L12.10821,7.0101 L10.66891,8.4451 L9.22951,7.0101 L9.22951,3.1241 C9.22951,2.8715 8.97551,2.6182 8.72151,2.6182 Z M2.62482,2.6182 L1.94747,2.6182 C1.69346,2.6182 1.43946,2.8715 1.43946,3.1241 L1.43946,9.7973 C1.43946,10.0507 1.69346,10.3032 1.94747,10.3032 L6.01157,10.3032 C6.26558,10.3032 6.51958,10.0507 6.51958,9.7973 L6.51958,9.1216 C6.51958,8.8674 6.26558,8.614 6.01157,8.614 L3.13283,8.614 L3.13283,3.1241 C3.13283,2.8715 2.87883,2.6182 2.62482,2.6182 Z M21.76051,1.3506 L16.51111,1.3506 C16.25711,1.3506 16.00391,1.604 16.00391,1.8565 L16.00391,2.533 C16.00391,2.7864 16.25711,3.0398 16.51111,3.0398 L20.57521,3.0398 L20.57521,4.9824 L16.51111,4.9824 C16.25711,4.9824 16.00391,5.2349 16.00391,5.4892 L16.00391,9.7966 C16.00391,10.05 16.25711,10.3026 16.51111,10.3026 L21.76051,10.3026 C22.01451,10.3026 22.26851,10.05 22.26851,9.7966 L22.26851,9.121 C22.26851,8.8667 22.01451,8.6133 21.76051,8.6133 L17.69731,8.6133 L17.69731,6.6716 L21.76051,6.6716 C22.01451,6.6716 22.26851,6.4182 22.26851,6.1648 L22.26851,1.8565 C22.26851,1.604 22.01451,1.3506 21.76051,1.3506 Z" id="形状" fill="#8BD29B"></path>
        </g>
    </g>
</svg>