<?xml version="1.0" encoding="UTF-8"?>
<svg width="24px" height="12px" viewBox="0 0 24 12" version="1.1" xmlns="http://www.w3.org/2000/svg" xmlns:xlink="http://www.w3.org/1999/xlink">
    <title>lv4</title>
    <g id="页面-1" stroke="none" stroke-width="1" fill="none" fill-rule="evenodd">
        <g id="lv4" transform="translate(0.000000, 0.000000)">
            <rect id="矩形" fill="#FFFFFF" fill-rule="nonzero" x="1.11816" y="1.18604" width="22" height="9.67113"></rect>
            <path d="M23.0299,0 C23.3686,0 23.7073,0.3378 23.6234,0.6756 L23.6234,10.8946 C23.6234,11.2324 23.3686,11.5702 22.9452,11.5702 L0.67735,11.5702 C0.33867,11.5702 0,11.3169 0,10.8946 L0,1.858 C0,1.5202 0.25401,1.1824 0.67735,1.1824 L14.6477,1.1824 L14.6477,0.6756 C14.6477,0.3378 14.9017,0 15.3251,0 L23.0299,0 Z M8.7215,2.6182 L8.04415,2.6182 C7.79014,2.6182 7.53613,2.8715 7.53613,3.1249 L7.53638,7.353 C7.53786,7.53446 7.54823,7.71933 7.6208,7.7699 L9.9915,10.1338 C10.1609,10.3035 10.5842,10.3035 10.5842,10.3035 L10.599,10.3033 C10.6752,10.3014 11.0264,10.2846 11.1769,10.1338 L13.717,7.7699 C13.8016,7.6854 13.8016,7.5165 13.8016,7.3476 L13.8016,3.2093 C13.8016,2.956 13.5476,2.7026 13.2936,2.7026 L12.6171,2.7026 C12.3623,2.7026 12.1082,2.956 12.1082,3.2093 L12.1082,7.0098 L10.6689,8.4447 L9.2295,7.0098 L9.2295,3.1249 C9.2295,2.8715 8.9755,2.6182 8.7215,2.6182 Z M2.62482,2.6182 L1.94747,2.6182 C1.69346,2.6182 1.43945,2.8715 1.43945,3.1249 L1.43945,9.7968 C1.43945,10.0501 1.69346,10.3035 1.94747,10.3035 L6.01157,10.3035 C6.26557,10.3035 6.51958,10.0501 6.51958,9.7968 L6.51958,9.1212 C6.51958,8.8669 6.26557,8.6144 6.01157,8.6144 L3.13283,8.6144 L3.13283,3.1249 C3.13283,2.8715 2.87882,2.6182 2.62482,2.6182 Z M17.1884,1.3506 L16.5111,1.3506 C16.2571,1.3506 16.0039,1.6039 16.0039,1.8573 L16.0039,6.1645 C16.0039,6.4178 16.2571,6.6712 16.5111,6.6712 L20.5752,6.6712 L20.5752,9.796 C20.5752,10.0494 20.8292,10.3027 21.084,10.3027 L21.7605,10.3027 C22.0145,10.3027 22.2686,10.0494 22.2686,9.796 L22.2686,1.8573 C22.2686,1.6039 22.0145,1.3506 21.7605,1.3506 L21.084,1.3506 C20.8292,1.3506 20.5752,1.6039 20.5752,1.8573 L20.5752,4.9821 L17.6973,4.9821 L17.6973,1.8573 C17.6973,1.6039 17.4424,1.3506 17.1884,1.3506 Z" id="形状" fill="#FEBB8B"></path>
        </g>
    </g>
</svg>