<?xml version="1.0" encoding="UTF-8"?>
<svg width="24px" height="12px" viewBox="0 0 24 12" version="1.1" xmlns="http://www.w3.org/2000/svg" xmlns:xlink="http://www.w3.org/1999/xlink">
    <title>lv5</title>
    <g id="页面-1" stroke="none" stroke-width="1" fill="none" fill-rule="evenodd">
        <g id="lv5" transform="translate(0.000000, 0.000000)">
            <rect id="矩形" fill="#FFFFFF" fill-rule="nonzero" x="0.81787" y="1.32031" width="22" height="9.67113"></rect>
            <path d="M23.02991,0 C23.36861,0 23.70731,0.3378 23.62341,0.6756 L23.62341,10.8946 C23.62341,11.2324 23.36861,11.5702 22.94521,11.5702 L0.67735,11.5702 C0.33868,11.5702 0,11.3169 0,10.8946 L0,1.858 C0,1.5202 0.25401,1.1824 0.67735,1.1824 L14.64771,1.1824 L14.64771,0.6756 C14.64771,0.3378 14.90171,0 15.32501,0 L23.02991,0 Z M8.72151,2.6182 L8.04415,2.6182 C7.79014,2.6182 7.53614,2.8715 7.53614,3.1249 L7.53614,7.2632 C7.53614,7.4343 7.53614,7.6901 7.6208,7.7699 L9.99151,10.1338 C10.14211,10.2846 10.49331,10.3014 10.56951,10.3033 L10.58421,10.3035 C10.58421,10.3035 11.00751,10.3035 11.17691,10.1338 L13.71691,7.7699 C13.80161,7.6854 13.80161,7.5165 13.80161,7.3476 L13.80161,3.2093 C13.80161,2.956 13.54761,2.7026 13.29361,2.7026 L12.61711,2.7026 C12.36221,2.7026 12.10821,2.956 12.10821,3.2093 L12.10821,7.0098 L10.66891,8.4447 L9.22951,7.0098 L9.22951,3.1249 C9.22951,2.8715 8.97551,2.6182 8.72151,2.6182 Z M2.62482,2.6182 L1.94747,2.6182 C1.69346,2.6182 1.43946,2.8715 1.43946,3.1249 L1.43946,9.7968 C1.43946,10.0501 1.69346,10.3035 1.94747,10.3035 L6.01157,10.3035 C6.26558,10.3035 6.51958,10.0501 6.51958,9.7968 L6.51958,9.1212 C6.51958,8.8669 6.26558,8.6144 6.01157,8.6144 L3.13283,8.6144 L3.13283,3.1249 C3.13283,2.8715 2.87883,2.6182 2.62482,2.6182 Z M21.76051,1.3506 L16.51111,1.3506 C16.25711,1.3506 16.00391,1.6039 16.00391,1.8573 L16.00391,6.1645 C16.00391,6.4178 16.25711,6.6712 16.51111,6.6712 L20.57521,6.6712 L20.57521,8.6137 L16.51111,8.6137 C16.25711,8.6137 16.00391,8.8662 16.00391,9.1204 L16.00391,9.796 C16.00391,10.0494 16.25711,10.3027 16.51111,10.3027 L21.76051,10.3027 C22.01451,10.3027 22.26851,10.0494 22.26851,9.796 L22.26851,5.4888 C22.26851,5.2355 22.01451,4.9821 21.76051,4.9821 L17.69731,4.9821 L17.69731,3.1241 L21.76051,3.1241 C22.01451,3.1241 22.26851,2.8708 22.26851,2.6174 L22.26851,1.8573 C22.26851,1.6039 22.01451,1.3506 21.76051,1.3506 Z" id="形状" fill="#EE672A"></path>
        </g>
    </g>
</svg>