<?xml version="1.0" encoding="UTF-8"?>
<svg width="24px" height="12px" viewBox="0 0 24 12" version="1.1" xmlns="http://www.w3.org/2000/svg" xmlns:xlink="http://www.w3.org/1999/xlink">
    <title>lv6</title>
    <g id="页面-1" stroke="none" stroke-width="1" fill="none" fill-rule="evenodd">
        <g id="lv6" transform="translate(-0.000000, 0.000000)" fill-rule="nonzero">
            <rect id="矩形" fill="#FFFFFF" x="0.81787" y="1.25342" width="22" height="9.67113"></rect>
            <path d="M23.02991,0 C23.34041,0 23.65081,0.28385 23.63581,0.59135 L23.62341,0.6756 L23.62341,10.89454 C23.62341,11.20174 23.41281,11.50904 23.05641,11.56234 L22.94521,11.57054 L0.67735,11.57054 C0.36947,11.57054 0.06158,11.36054 0.00815,11.00534 L0,10.89454 L0,1.858 C0,1.55082 0.20993,1.24372 0.56616,1.19042 L0.67735,1.18231 L14.64771,1.18231 L14.64771,0.6756 C14.64771,0.36851 14.85761,0.06142 15.21381,0.00813 L15.32501,0 L23.02991,0 Z M21.76051,1.4355 L16.51111,1.4355 C16.28531,1.4355 16.06021,1.63572 16.01291,1.85811 L16.00391,1.9422 L16.00391,9.79654 C16.00391,10.02144 16.20401,10.24704 16.42681,10.29444 L16.51111,10.30354 L21.76051,10.30354 C21.98631,10.30354 22.21211,10.10284 22.25941,9.88054 L22.26851,9.79654 L22.26851,5.4895 C22.26851,5.26372 22.06781,5.03873 21.84481,4.99152 L21.76051,4.98251 L17.69731,4.98251 L17.69731,3.1246 L21.76051,3.1246 C21.98631,3.1246 22.21211,2.92438 22.25941,2.70199 L22.26851,2.61791 L22.26851,1.9422 C22.26851,1.6889 22.01451,1.4355 21.76051,1.4355 Z M8.72151,2.6181 L8.04415,2.6181 C7.79014,2.6181 7.53614,2.8715 7.53614,3.1249 L7.53614,7.2635 C7.53614,7.4925 7.53614,7.69851 7.6208,7.76951 L9.99151,10.13354 C10.09911,10.24144 10.30901,10.28084 10.44791,10.29524 L10.58421,10.30354 L10.70021,10.29724 C10.83821,10.28464 11.06401,10.24684 11.17691,10.13354 L13.71691,7.76951 C13.78471,7.70231 13.79821,7.5807 13.80091,7.44822 L13.80161,3.2093 C13.80161,2.9559 13.54761,2.7026 13.29361,2.7026 L12.61711,2.7026 C12.36221,2.7026 12.10821,2.9559 12.10821,3.2093 L12.10821,7.0095 L10.66891,8.4445 L9.22951,7.0095 L9.22951,3.1249 C9.22951,2.8715 8.97551,2.6181 8.72151,2.6181 Z M2.62482,2.6181 L1.94747,2.6181 C1.72168,2.6181 1.4959,2.81832 1.44852,3.04078 L1.43946,3.1249 L1.43946,9.79654 C1.43946,10.02224 1.64015,10.24724 1.86315,10.29444 L1.94747,10.30354 L6.01157,10.30354 C6.23736,10.30354 6.46314,10.10364 6.51052,9.88084 L6.51958,9.79654 L6.51958,9.12154 C6.51958,8.89484 6.31889,8.67054 6.09589,8.6235 L6.01157,8.6145 L3.13283,8.6145 L3.13283,3.1249 C3.13283,2.8715 2.87883,2.6181 2.62482,2.6181 Z M20.57471,6.6715 L20.57471,8.6145 L17.69681,8.6145 L17.69681,6.6715 L20.57471,6.6715 Z" id="形状" fill="#FF0000"></path>
        </g>
    </g>
</svg>