<?xml version="1.0" encoding="UTF-8"?>
<svg width="34px" height="12px" viewBox="0 0 34 12" version="1.1" xmlns="http://www.w3.org/2000/svg" xmlns:xlink="http://www.w3.org/1999/xlink">
    <title>lv6_plus</title>
    <g id="页面-1" stroke="none" stroke-width="1" fill="none" fill-rule="evenodd">
        <g id="lv6_plus" transform="translate(-0.000000, 0.000000)" fill-rule="nonzero">
            <rect id="矩形" fill="#FFFFFF" x="1.01709" y="1.23096" width="30.7471" height="9.67113"></rect>
            <path d="M33.02992,0 C33.34042,0 33.65082,0.28401 33.63582,0.59169 L33.62342,0.67599 L33.62342,10.895 C33.62342,11.2014 33.41282,11.5086 33.05642,11.5619 L32.94522,11.57 L0.67735,11.57 C0.36946,11.57 0.06158,11.3609 0.00814,11.0058 L0,10.895 L0,1.858 C0,1.55073 0.20992,1.24345 0.56616,1.19012 L0.67735,1.18201 L14.64772,1.18201 L14.64772,0.67599 C14.64772,0.36872 14.85762,0.06146 15.21382,0.00813 L15.32502,0 L33.02992,0 Z M28.37792,1.386 L24.65562,6.453 C24.47032,6.705 24.65042,7.06 24.96332,7.06 L27.37932,7.06 L26.96322,9.944 C26.90652,10.337 27.41352,10.545 27.64882,10.224 L31.37122,5.158 C31.55642,4.906 31.37642,4.55 31.06352,4.55 L28.64742,4.55 L29.06352,1.66701 C29.12032,1.27301 28.61322,1.066 28.37792,1.386 Z M21.76052,1.435 L16.51112,1.435 C16.25702,1.435 16.00392,1.689 16.00392,1.942 L16.00392,9.796 C16.00392,10.05 16.25702,10.303 16.51112,10.303 L21.76052,10.303 C22.01452,10.303 22.26852,10.05 22.26852,9.796 L22.26852,5.489 C22.26852,5.236 22.01452,4.983 21.76052,4.983 L17.69732,4.983 L17.69732,3.125 L21.76052,3.125 C22.01452,3.125 22.26852,2.871 22.26852,2.618 L22.26852,1.942 C22.26852,1.689 22.01452,1.435 21.76052,1.435 Z M8.72152,2.618 L8.04415,2.618 C7.79014,2.618 7.53613,2.871 7.53613,3.125 L7.53613,7.263 C7.53613,7.493 7.53613,7.698 7.6208,7.77 L9.99152,10.134 C10.16082,10.303 10.58422,10.303 10.58422,10.303 C10.58422,10.303 11.00752,10.303 11.17692,10.134 L13.71692,7.77 C13.80162,7.685 13.80162,7.51601 13.80162,7.34801 L13.80162,3.209 C13.80162,2.956 13.54762,2.703 13.29362,2.703 L12.61712,2.703 C12.36222,2.703 12.10822,2.956 12.10822,3.209 L12.10822,7.00999 L10.66892,8.44501 L9.22952,7.00999 L9.22952,3.125 C9.22952,2.871 8.97552,2.618 8.72152,2.618 Z M2.62482,2.618 L1.94747,2.618 C1.72168,2.618 1.4959,2.8179 1.44851,3.04071 L1.43945,3.125 L1.43945,9.797 C1.43945,10.0219 1.64015,10.2468 1.86315,10.294 L1.94747,10.303 L6.01157,10.303 C6.23736,10.303 6.46314,10.1031 6.51052,9.881 L6.51958,9.797 L6.51958,9.121 C6.51958,8.89522 6.31889,8.67024 6.09589,8.62303 L6.01157,8.614 L3.13283,8.614 L3.13283,3.125 C3.13283,2.871 2.87882,2.618 2.62482,2.618 Z M20.57472,6.672 L20.57472,8.614 L17.69682,8.614 L17.69682,6.672 L20.57472,6.672 Z" id="形状" fill="#FF0000"></path>
        </g>
    </g>
</svg>